<?xml version="1.0" encoding="UTF-8"?>
<svg version="1.1" xmlns="http://www.w3.org/2000/svg" width="400" height="400">
<path d="M0 0 C132 0 264 0 400 0 C400 132 400 264 400 400 C268 400 136 400 0 400 C0 268 0 136 0 0 Z " fill="#FEFEFE" transform="translate(0,0)"/>
<path d="M0 0 C1.12709885 -0.0071553 2.25419769 -0.01431061 3.41545105 -0.02168274 C4.65804184 -0.02437164 5.90063263 -0.02706055 7.18087769 -0.02983093 C8.48505142 -0.03640213 9.78922516 -0.04297333 11.13291931 -0.04974365 C15.46643846 -0.07079831 19.79995801 -0.08115022 24.1335144 -0.09111023 C25.62601617 -0.09515785 27.11851775 -0.09927478 28.61101913 -0.10346031 C35.62587619 -0.1225184 42.6407227 -0.13674574 49.65560067 -0.14507228 C57.7463968 -0.15483473 65.83691862 -0.18112543 73.92761815 -0.22157317 C80.18420964 -0.2517749 86.44072272 -0.26654516 92.69738567 -0.26985329 C96.43239498 -0.27220002 100.16711146 -0.28111014 103.90204239 -0.30631447 C108.07458872 -0.33401548 112.24652638 -0.3297517 116.41915894 -0.32279968 C117.64960434 -0.33560974 118.88004974 -0.3484198 120.14778137 -0.36161804 C128.68072579 -0.30982584 133.81086451 1.02844312 140.5632019 6.45967102 C144.20968966 11.07140554 144.91374713 15.39499523 144.6257019 21.14717102 C143.84504939 27.25298886 141.08310307 30.90195117 136.6882019 35.02217102 C132.70954649 37.26016469 128.44897051 37.27499656 123.97094727 37.29434204 C122.82986511 37.30149734 121.68878296 37.30865265 120.51312256 37.31602478 C119.27039581 37.31871368 118.02766907 37.32140259 116.74728394 37.32417297 C115.43131226 37.33074417 114.11534058 37.33731537 112.75949097 37.34408569 C108.40501103 37.3650553 104.05053102 37.37547888 99.6960144 37.38545227 C98.19388689 37.38950196 96.69175956 37.39361895 95.18963242 37.39780235 C88.13367461 37.4168355 81.07772718 37.43107253 74.02174866 37.43941432 C65.88739331 37.44919122 57.75330973 37.47553019 49.61905015 37.51591522 C43.32334831 37.54609612 37.02772435 37.56088491 30.73195159 37.56419533 C26.97522195 37.56654282 23.2187833 37.57546417 19.4621315 37.60065651 C15.27055024 37.6283141 11.0795757 37.62410011 6.88790894 37.61714172 C5.64923065 37.62995178 4.41055237 37.64276184 3.13433838 37.65596008 C-3.57546191 37.6153298 -7.88109439 37.21378421 -13.3117981 33.14717102 C-17.21782799 29.05722492 -19.18931538 24.06248276 -19.4992981 18.44404602 C-19.06916594 13.17492708 -17.19194683 8.91606835 -13.33132935 5.28388977 C-8.75480667 1.79106099 -5.80768703 0.0252405 0 0 Z " fill="#39D003" transform="translate(98.31179809570313,153.8528289794922)"/>
<path d="M0 0 C1.132668 -0.00571014 2.265336 -0.01142029 3.43232727 -0.01730347 C4.66570328 -0.01842133 5.89907928 -0.01953918 7.16983032 -0.02069092 C9.12915749 -0.02813828 9.12915749 -0.02813828 11.12806702 -0.03573608 C14.70457267 -0.04882156 18.28105959 -0.05529722 21.85758543 -0.05974674 C24.09409173 -0.06268303 26.33059297 -0.06678883 28.56709671 -0.07125092 C35.57073198 -0.08491423 42.57435561 -0.09458721 49.57800329 -0.09845281 C57.65174915 -0.10293415 65.72532576 -0.12049038 73.79902017 -0.1494534 C80.04801445 -0.17108974 86.29696117 -0.18115809 92.54599249 -0.18249393 C96.27471982 -0.18354034 100.00328779 -0.18941341 103.73197556 -0.20731354 C107.89235417 -0.22689905 112.05237941 -0.2224975 116.21279907 -0.21600342 C118.05679039 -0.22982559 118.05679039 -0.22982559 119.93803406 -0.243927 C127.77800527 -0.20557006 132.98650471 0.32489141 139.13320923 5.51544189 C143.24592484 10.45070063 143.84433171 15.08509967 143.68399048 21.35528564 C143.08285884 25.96396156 141.5017679 28.80612632 138.32070923 32.14044189 C130.94629138 37.31933861 123.92041369 37.86201019 115.13516235 37.78741455 C113.85254013 37.79617615 112.56991791 37.80493774 111.24842834 37.81396484 C107.75854605 37.83658785 104.26941008 37.82799363 100.77951622 37.81206942 C97.11000074 37.7993212 93.44054488 37.81117509 89.77102661 37.81900024 C83.61120246 37.82807108 77.45167903 37.81617682 71.29190063 37.79229736 C64.19231644 37.76509067 57.09345042 37.77390668 49.99388361 37.80142939 C43.87461828 37.82419316 37.75556789 37.82728528 31.63627386 37.81423604 C27.99186798 37.80648118 24.34779855 37.80528934 20.70341492 37.82191849 C16.63726981 37.83917951 12.57234305 37.81519 8.5062561 37.78741455 C7.31427109 37.79753571 6.12228607 37.80765686 4.8941803 37.81808472 C-2.6100554 37.72348059 -8.44912105 36.4970174 -14.67929077 32.14044189 C-18.85023619 27.84409367 -19.99793401 23.97884811 -20.24179077 18.01544189 C-20.01242952 12.95038089 -19.15327678 9.98999396 -15.67929077 6.14044189 C-14.87491577 5.21231689 -14.07054077 4.28419189 -13.24179077 3.32794189 C-9.20400289 -0.1189502 -5.16020465 0.01563385 0 0 Z " fill="#0472E8" transform="translate(177.67929077148438,208.85955810546875)"/>
<path d="M0 0 C0.75519928 -0.0065712 1.51039856 -0.0131424 2.28848267 -0.01991272 C4.77801632 -0.0395585 7.26748985 -0.0512897 9.75708008 -0.0612793 C10.61158564 -0.06535482 11.46609119 -0.06943035 12.34649086 -0.07362938 C16.87080261 -0.09445447 21.39508436 -0.10877071 25.91943359 -0.11816406 C30.57180416 -0.12921218 35.22369434 -0.16360373 39.8758955 -0.20333576 C43.47148983 -0.2295889 47.06697124 -0.23786365 50.66265297 -0.24144554 C52.37652132 -0.24629019 54.09038534 -0.25784305 55.80415916 -0.27648354 C73.79698411 -0.4600039 73.79698411 -0.4600039 81.33911133 4.17700195 C85.5947367 8.43262732 87.62905022 12.47568149 87.71411133 18.48950195 C87.60482162 23.95398733 86.6260407 26.82404143 83.33911133 31.17700195 C77.80385172 36.29711709 73.65774262 37.4769509 66.20922852 37.48339844 C64.98404762 37.49588371 64.98404762 37.49588371 63.7341156 37.50862122 C61.03469059 37.53270924 58.33550741 37.54149274 55.63598633 37.5480957 C53.75514657 37.55706442 51.87430754 37.56618631 49.99346924 37.57545471 C46.04925809 37.59194504 42.10513182 37.59964465 38.16088867 37.60253906 C33.11917741 37.60791651 28.07826978 37.64556992 23.03678513 37.69128323 C19.15044278 37.72110417 15.26429255 37.72826375 11.37784576 37.72926521 C9.51997454 37.73345912 7.66210231 37.74586003 5.80434418 37.76678276 C3.19782918 37.79379634 0.59315818 37.7888424 -2.01342773 37.77636719 C-2.77319412 37.79120148 -3.53296051 37.80603577 -4.31575012 37.82131958 C-10.90696022 37.73199081 -15.55081849 35.09489745 -20.31729507 30.62294674 C-23.62092018 27.06766074 -24.10080955 23.4985228 -24.34838867 18.73950195 C-24.13081538 13.17858457 -23.02012055 9.83415604 -19.30932617 5.6965332 C-13.48079272 0.32378554 -7.63748937 0.02912886 0 0 Z " fill="#0472E8" transform="translate(181.660888671875,99.822998046875)"/>
<path d="M0 0 C0.82522659 -0.01022186 1.65045319 -0.02044373 2.50068665 -0.03097534 C5.21714645 -0.05867758 7.93258601 -0.05686068 10.64916992 -0.05224609 C12.54717889 -0.06002619 14.44518439 -0.06869681 16.34318542 -0.07821655 C20.31842338 -0.09312243 24.29330606 -0.09257318 28.26855469 -0.08203125 C33.34620666 -0.07045629 38.42239608 -0.10427376 43.4998064 -0.1507206 C47.41969714 -0.18028571 51.33923953 -0.18192644 55.25922203 -0.17570114 C57.13021423 -0.17672347 59.00122697 -0.18712204 60.87211037 -0.20732498 C78.4784383 -0.37409504 78.4784383 -0.37409504 85.03300476 4.87783813 C88.70832812 8.88219727 90.33449589 12.68817415 91.00463867 18.04931641 C90.11499482 25.16646724 88.18048916 29.63127003 82.67651367 34.32275391 C77.39296922 37.39503716 71.73729005 37.84545173 65.75512695 37.82397461 C64.63411087 37.83164101 64.63411087 37.83164101 63.490448 37.83946228 C61.03936577 37.85327199 58.58856749 37.85240796 56.13745117 37.85009766 C54.42023618 37.85398952 52.70302214 37.8583252 50.98580933 37.86308289 C47.39325841 37.87052672 43.80080579 37.87026732 40.20825195 37.86499023 C35.62315995 37.85920021 31.03847252 37.87612418 26.45344734 37.89933491 C22.90849487 37.91412615 19.3636386 37.9149366 15.81866074 37.91182518 C14.12911046 37.91233576 12.43955442 37.91752355 10.75003433 37.9276371 C-9.70393246 38.03505427 -9.70393246 38.03505427 -16.30786133 31.86181641 C-19.86124701 26.32271519 -22.34810196 21.25792774 -21.13598633 14.56494141 C-17.7572844 4.87932921 -9.99269405 -0.06443097 0 0 Z " fill="#38D102" transform="translate(152.432861328125,262.45068359375)"/>
<path d="M0 0 C4.77482268 2.04635258 8.6616277 4.97133446 11.5625 9.3125 C13.59108773 14.51626853 14.01968898 18.80917548 12.3046875 24.17578125 C10.11398036 29.06345138 7.36133045 31.93778926 3 35 C-2.67147014 36.89049005 -8.80797914 36.75724357 -14.4375 34.8125 C-19.48663989 31.24115715 -22.14220415 26.86672373 -24 21 C-24.16423779 15.46422041 -23.04514336 10.68483594 -20 6 C-19.01 5.67 -18.02 5.34 -17 5 C-17 4.34 -17 3.68 -17 3 C-11.54912654 -0.5357017 -6.30030118 -1.06459383 0 0 Z " fill="#38D103" transform="translate(103,263)"/>
<path d="M0 0 C4.73708513 3.68439955 8.65836213 7.13759568 9.65625 13.23046875 C9.87834549 19.64347591 8.95535586 23.73770147 5.01171875 28.8671875 C0.9123545 33.24832623 -2.66681097 34.94573853 -8.6875 35.25 C-13.69203147 35.01386533 -17.79340268 33.90248516 -21.75 30.75 C-23.49674098 28.47670522 -24.53031731 26.3845146 -25.75 23.75 C-26.08 23.09 -26.41 22.43 -26.75 21.75 C-27.47548568 14.57839566 -27.13318689 9.55476102 -22.75 3.75 C-16.17406256 -2.65288646 -8.2750162 -3.761371 0 0 Z " fill="#0572E7" transform="translate(311.75,102.25)"/>
<path d="M0 0 C0.75519928 -0.0065712 1.51039856 -0.0131424 2.28848267 -0.01991272 C4.77801632 -0.0395585 7.26748985 -0.0512897 9.75708008 -0.0612793 C10.61158564 -0.06535482 11.46609119 -0.06943035 12.34649086 -0.07362938 C16.87080261 -0.09445447 21.39508436 -0.10877071 25.91943359 -0.11816406 C30.57180416 -0.12921218 35.22369434 -0.16360373 39.8758955 -0.20333576 C43.47148983 -0.2295889 47.06697124 -0.23786365 50.66265297 -0.24144554 C52.37652132 -0.24629019 54.09038534 -0.25784305 55.80415916 -0.27648354 C73.79698411 -0.4600039 73.79698411 -0.4600039 81.33911133 4.17700195 C85.5947367 8.43262732 87.62905022 12.47568149 87.71411133 18.48950195 C87.60482162 23.95398733 86.6260407 26.82404143 83.33911133 31.17700195 C77.80385172 36.29711709 73.65774262 37.4769509 66.20922852 37.48339844 C64.98404762 37.49588371 64.98404762 37.49588371 63.7341156 37.50862122 C61.03469059 37.53270924 58.33550741 37.54149274 55.63598633 37.5480957 C53.75514657 37.55706442 51.87430754 37.56618631 49.99346924 37.57545471 C46.04925809 37.59194504 42.10513182 37.59964465 38.16088867 37.60253906 C33.11917741 37.60791651 28.07826978 37.64556992 23.03678513 37.69128323 C19.15044278 37.72110417 15.26429255 37.72826375 11.37784576 37.72926521 C9.51997454 37.73345912 7.66210231 37.74586003 5.80434418 37.76678276 C3.19782918 37.79379634 0.59315818 37.7888424 -2.01342773 37.77636719 C-2.77319412 37.79120148 -3.53296051 37.80603577 -4.31575012 37.82131958 C-10.90696022 37.73199081 -15.55081849 35.09489745 -20.31729507 30.62294674 C-23.62092018 27.06766074 -24.10080955 23.4985228 -24.34838867 18.73950195 C-24.13081538 13.17858457 -23.02012055 9.83415604 -19.30932617 5.6965332 C-13.48079272 0.32378554 -7.63748937 0.02912886 0 0 Z M-12.66088867 4.17700195 C-12.00088867 4.83700195 -11.34088867 5.49700195 -10.66088867 6.17700195 C-11.30026367 6.46575195 -11.93963867 6.75450195 -12.59838867 7.05200195 C-14.81294946 8.00523646 -14.81294946 8.00523646 -15.66088867 10.17700195 C-16.86745117 10.73387695 -16.86745117 10.73387695 -18.09838867 11.30200195 C-21.30583001 13.64891025 -21.78994721 15.31597797 -22.49291992 19.13012695 C-22.76747656 22.4758869 -22.29751548 24.21848426 -20.66088867 27.17700195 C-15.98084291 32.45705358 -12.73072157 34.40409184 -5.66088867 35.17700195 C-2.97117816 35.27541186 -0.30686627 35.33392134 2.38232422 35.33813477 C3.53982933 35.34558212 3.53982933 35.34558212 4.72071838 35.35317993 C7.25107744 35.36768137 9.78137396 35.37458093 12.31176758 35.38012695 C13.18046415 35.38295433 14.04916073 35.38578171 14.94418144 35.38869476 C19.53521906 35.40363345 24.12622565 35.41289831 28.71728516 35.41723633 C33.45061329 35.42273392 38.18365566 35.44680413 42.91689396 35.47520828 C46.56722343 35.49384831 50.21748394 35.49904084 53.86785698 35.5005722 C55.61292532 35.50359277 57.35799263 35.51160114 59.10301399 35.52475739 C61.54399517 35.54185762 63.98427581 35.53992893 66.42529297 35.53344727 C67.49852814 35.54726944 67.49852814 35.54726944 68.59344482 35.56137085 C73.21216248 35.52305159 76.48040836 34.75170406 80.33911133 32.17700195 C81.0808714 28.65186667 81.0808714 28.65186667 81.33911133 25.17700195 C82.32911133 24.51700195 83.31911133 23.85700195 84.33911133 23.17700195 C85.95631793 18.32538215 85.67179043 14.40375615 84.33911133 9.48950195 C81.73464206 5.17584973 79.00755218 3.85358186 74.33911133 2.17700195 C71.42742218 1.67119985 68.60989141 1.64770361 65.65991211 1.69116211 C64.83290298 1.68736542 64.00589386 1.68356873 63.15382385 1.67965698 C60.44695937 1.67230543 57.7411912 1.69354649 55.03442383 1.71606445 C53.14492926 1.7184509 51.25543229 1.71935377 49.36593628 1.71884155 C45.42031855 1.72195962 41.47506676 1.73845614 37.52954102 1.76538086 C32.46517765 1.79949945 27.40121299 1.80700495 22.33674812 1.80549049 C18.44206925 1.8060332 14.54747801 1.81698209 10.65282822 1.83149338 C8.78445981 1.83786647 6.91608148 1.84180147 5.04770279 1.84328079 C2.44560905 1.84760048 -0.15605478 1.8650682 -2.75805664 1.88647461 C-3.5331105 1.88556824 -4.30816437 1.88466187 -5.10670471 1.88372803 C-9.34395098 1.78909732 -9.34395098 1.78909732 -12.66088867 4.17700195 Z " fill="#1E76D2" transform="translate(181.660888671875,99.822998046875)"/>
<path d="M0 0 C1.132668 -0.00571014 2.265336 -0.01142029 3.43232727 -0.01730347 C4.66570328 -0.01842133 5.89907928 -0.01953918 7.16983032 -0.02069092 C9.12915749 -0.02813828 9.12915749 -0.02813828 11.12806702 -0.03573608 C14.70457267 -0.04882156 18.28105959 -0.05529722 21.85758543 -0.05974674 C24.09409173 -0.06268303 26.33059297 -0.06678883 28.56709671 -0.07125092 C35.57073198 -0.08491423 42.57435561 -0.09458721 49.57800329 -0.09845281 C57.65174915 -0.10293415 65.72532576 -0.12049038 73.79902017 -0.1494534 C80.04801445 -0.17108974 86.29696117 -0.18115809 92.54599249 -0.18249393 C96.27471982 -0.18354034 100.00328779 -0.18941341 103.73197556 -0.20731354 C107.89235417 -0.22689905 112.05237941 -0.2224975 116.21279907 -0.21600342 C118.05679039 -0.22982559 118.05679039 -0.22982559 119.93803406 -0.243927 C127.77800527 -0.20557006 132.98650471 0.32489141 139.13320923 5.51544189 C143.24831262 10.45356596 143.80863588 15.06977179 143.71524048 21.33575439 C143.11344298 25.61387919 141.28678704 29.00358991 138.32070923 32.14044189 C137.66070923 32.14044189 137.00070923 32.14044189 136.32070923 32.14044189 C136.63008423 31.37731689 136.93945923 30.61419189 137.25820923 29.82794189 C137.99964516 27.95254513 138.6829914 26.05359538 139.32070923 24.14044189 C139.98070923 24.14044189 140.64070923 24.14044189 141.32070923 24.14044189 C141.32070923 21.17044189 141.32070923 18.20044189 141.32070923 15.14044189 C140.00070923 15.14044189 138.68070923 15.14044189 137.32070923 15.14044189 C136.99070923 13.49044189 136.66070923 11.84044189 136.32070923 10.14044189 C135.33070923 10.14044189 134.34070923 10.14044189 133.32070923 10.14044189 C130.63320923 8.76544189 130.63320923 8.76544189 128.32070923 7.14044189 C128.32070923 6.48044189 128.32070923 5.82044189 128.32070923 5.14044189 C129.64070923 4.81044189 130.96070923 4.48044189 132.32070923 4.14044189 C130.59809413 2.41782679 128.30724681 3.00686979 125.9571228 3 C124.21154839 2.99143478 124.21154839 2.99143478 122.43070984 2.98269653 C120.49825661 2.98101974 120.49825661 2.98101974 118.52676392 2.97930908 C117.16528691 2.97468308 115.80381121 2.96965872 114.44233704 2.96426392 C110.73350164 2.95111415 107.02468436 2.9446896 103.31582928 2.94025326 C100.99962557 2.93732579 98.68342685 2.93322155 96.36722565 2.92874908 C89.1233096 2.91506543 81.87940491 2.90540386 74.63547683 2.90154719 C66.26849067 2.89706852 57.90166805 2.87953321 49.53473163 2.8505466 C43.07183838 2.8289327 36.60899114 2.81884302 30.14606214 2.81750607 C26.28432009 2.81645754 22.42273158 2.81054002 18.56102753 2.79268646 C14.92652165 2.77621142 11.2922848 2.77404737 7.6577549 2.78282547 C5.68942435 2.78396352 3.72110276 2.77024047 1.75282288 2.756073 C0.5778273 2.76164215 -0.59716827 2.7672113 -1.80776978 2.77294922 C-3.3364588 2.77074938 -3.3364588 2.77074938 -4.89603043 2.7685051 C-9.20662848 3.34454537 -11.82036721 5.32923631 -14.92929077 8.26544189 C-17.31017614 12.17689643 -17.89106387 15.58339866 -17.67929077 20.14044189 C-16.53196715 23.84549909 -16.53196715 23.84549909 -14.67929077 27.14044189 C-14.12241577 28.27481689 -13.56554077 29.40919189 -12.99179077 30.57794189 C-12.55866577 31.42356689 -12.12554077 32.26919189 -11.67929077 33.14044189 C-15.33069901 31.96677496 -17.14317502 29.75344672 -18.91366577 26.40216064 C-20.91194818 20.49907128 -20.72059972 14.2616268 -17.99179077 8.70294189 C-17.22866577 7.85731689 -16.46554077 7.01169189 -15.67929077 6.14044189 C-14.87491577 5.21231689 -14.07054077 4.28419189 -13.24179077 3.32794189 C-9.20400289 -0.1189502 -5.16020465 0.01563385 0 0 Z " fill="#196FC2" transform="translate(177.67929077148438,208.85955810546875)"/>
<path d="M0 0 C1.30519592 -0.00730133 2.61039185 -0.01460266 3.95513916 -0.02212524 C7.5112152 -0.04081928 11.06617831 -0.02220171 14.62216687 0.00453901 C18.35666735 0.02730119 22.09111834 0.01894291 25.82566833 0.01504517 C32.09408584 0.01328358 38.36206897 0.03535047 44.63037109 0.07226562 C51.86226052 0.11461349 59.0935146 0.12161442 66.32550293 0.10914171 C73.30358813 0.09772624 80.28145116 0.10907744 87.25950432 0.1314888 C90.21985957 0.14074185 93.18007808 0.14254555 96.1404438 0.13831711 C100.27885946 0.1338271 104.41639672 0.1628592 108.5546875 0.1953125 C109.77413559 0.19035767 110.99358368 0.18540283 112.24998474 0.18029785 C120.72467089 0.28620038 125.88013092 1.66195334 132.58764648 7.05712891 C136.98905829 12.62362031 136.89923746 17.86457141 136.19702148 24.60791016 C135.71264648 26.74462891 135.71264648 26.74462891 133.71264648 28.74462891 C133.71264648 23.79462891 133.71264648 18.84462891 133.71264648 13.74462891 C132.06264648 13.08462891 130.41264648 12.42462891 128.71264648 11.74462891 C127.40014648 8.11962891 127.40014648 8.11962891 126.71264648 4.74462891 C123.09356734 3.91655716 119.74286948 3.6136037 116.03335571 3.59745789 C114.33435371 3.58672493 114.33435371 3.58672493 112.60102844 3.57577515 C111.36765244 3.57308624 110.13427643 3.57039734 108.86352539 3.56762695 C107.55730728 3.56105576 106.25108917 3.55448456 104.9052887 3.54771423 C100.58327447 3.52674558 96.26126016 3.51632114 91.93920898 3.50634766 C90.44822547 3.50229793 88.95724214 3.49818094 87.466259 3.49399757 C80.46262695 3.47496464 73.45900534 3.46072756 66.45535243 3.4523856 C58.38155669 3.44260878 50.30803479 3.4162699 42.23433554 3.37588471 C35.98534244 3.34570299 29.73642778 3.33091494 23.48736322 3.32760459 C19.75857832 3.3252572 16.03008662 3.3163371 12.30138016 3.29114342 C8.14093063 3.263484 3.98109232 3.26770006 -0.17944336 3.2746582 C-1.4087709 3.26184814 -2.63809845 3.24903809 -3.90467834 3.23583984 C-10.69759022 3.27727744 -14.66706098 3.92240329 -20.28735352 7.74462891 C-20.94735352 7.41462891 -21.60735352 7.08462891 -22.28735352 6.74462891 C-15.12053708 0.60535752 -9.23501598 -0.11596625 0 0 Z " fill="#64D342" transform="translate(106.287353515625,153.25537109375)"/>
<path d="M0 0 C0 3.6952982 -0.72136847 5.11373339 -3 8 C-6.1875 8.8125 -6.1875 8.8125 -9 9 C-9 9.66 -9 10.32 -9 11 C-27.00245179 11.02337534 -45.00489963 11.04100195 -63.00736332 11.05181217 C-71.36648631 11.05696528 -79.72559986 11.0639892 -88.0847168 11.07543945 C-95.37174452 11.08541639 -102.65876541 11.0918606 -109.94579977 11.09408849 C-113.8030939 11.09539048 -117.66036847 11.09844396 -121.51765633 11.10573006 C-125.15126 11.11253776 -128.78483614 11.11460731 -132.41844559 11.11310768 C-134.38161318 11.11351221 -136.3447778 11.1188826 -138.30793762 11.12442017 C-143.97617515 11.11781231 -149.42034262 11.0367122 -155 10 C-155 8.35 -155 6.7 -155 5 C-153.67537498 5.73098152 -153.67537498 5.73098152 -152.32398987 6.47673035 C-146.7043877 8.86231557 -140.82095876 8.4094164 -134.81616211 8.37231445 C-133.49829208 8.37596512 -132.18042206 8.37961578 -130.82261658 8.38337708 C-127.22347104 8.39274642 -123.62459933 8.3833947 -120.02547526 8.37004495 C-116.25132274 8.35869008 -112.4771829 8.36284101 -108.70301819 8.36479187 C-102.36731518 8.36567347 -96.03171944 8.35462177 -89.69604492 8.33618164 C-82.37908648 8.31500693 -75.06228502 8.31150689 -67.74530214 8.3177436 C-60.69466267 8.32344476 -53.64407826 8.31778332 -46.59344673 8.30657005 C-43.59797709 8.30193496 -40.60254126 8.30104548 -37.60706902 8.3031559 C-33.42277731 8.30539501 -29.23870408 8.29090711 -25.05444336 8.2746582 C-23.19574615 8.27837433 -23.19574615 8.27837433 -21.29949951 8.28216553 C-19.58581429 8.27153831 -19.58581429 8.27153831 -17.83750916 8.26069641 C-16.84922088 8.25864354 -15.8609326 8.25659067 -14.84269619 8.25447559 C-11.64249247 7.96799625 -9.00566532 7.1140383 -6 6 C-5.01 5.67 -4.02 5.34 -3 5 C-1.8499169 3.03327085 -1.8499169 3.03327085 -1 1 C-0.67 0.67 -0.34 0.34 0 0 Z " fill="#D4FEC2" transform="translate(240,182)"/>
<path d="M0 0 C17.93327544 -0.14044254 35.86640727 -0.24610387 53.80011463 -0.31087303 C62.12791694 -0.34175195 70.45537664 -0.38381732 78.78295898 -0.45263672 C86.0451237 -0.51262264 93.30704019 -0.55119247 100.56944579 -0.56453097 C104.41152203 -0.5723226 108.25288841 -0.59050725 112.0947361 -0.63438034 C115.71875723 -0.67542647 119.34178334 -0.68760583 122.96601486 -0.67864609 C124.91422545 -0.68105678 126.86233024 -0.7131772 128.81025696 -0.746521 C137.00229735 -0.68948675 143.49819141 0.76481793 150 6 C151.85152912 8.55983925 151.85152912 8.55983925 153 11 C152.1875 13.3125 152.1875 13.3125 151 15 C150.5875 14.0925 150.175 13.185 149.75 12.25 C147.49387917 8.06006132 145.71105447 5.67740793 141.23581505 3.90565681 C137.99388672 2.99828898 135.39478931 2.75337925 132.03945923 2.75949097 C130.87005798 2.75674164 129.70065674 2.75399231 128.49581909 2.75115967 C126.5925737 2.7619455 126.5925737 2.7619455 124.65087891 2.77294922 C123.29040536 2.77351385 121.9299312 2.77319575 120.56945801 2.77206421 C116.88805874 2.77149173 113.20679051 2.78322901 109.52542162 2.79721212 C105.67372335 2.80973699 101.82202189 2.81089137 97.9703064 2.81326294 C90.68187126 2.81947255 83.39349631 2.83587634 76.10508764 2.85596192 C67.80523581 2.87833707 59.50538106 2.88931841 51.20550656 2.89935279 C34.1369696 2.92024304 17.06849117 2.95540891 0 3 C0 2.01 0 1.02 0 0 Z " fill="#D9F7FE" transform="translate(169,207)"/>
<path d="M0 0 C2.31 0 4.62 0 7 0 C4.02738616 3.44197392 0.84715623 4.82413318 -3.67279625 5.25447559 C-5.12342681 5.2575549 -5.12342681 5.2575549 -6.60336304 5.26069641 C-7.71920273 5.26778122 -8.83504242 5.27486603 -9.98469543 5.28216553 C-11.19936996 5.27968811 -12.41404449 5.27721069 -13.66552734 5.2746582 C-14.95223831 5.27976913 -16.23894928 5.28488007 -17.56465149 5.29014587 C-21.08746933 5.30351694 -24.61017975 5.30411659 -28.13301802 5.30158257 C-31.07773181 5.30051142 -34.022424 5.30540001 -36.96713316 5.310188 C-43.91690735 5.32127698 -50.8666275 5.32172425 -57.81640625 5.31567383 C-64.97655732 5.3096359 -72.13651178 5.32194174 -79.29662931 5.3432439 C-85.45221531 5.36088142 -91.60773885 5.36685781 -97.76334918 5.36360615 C-101.43617323 5.36179632 -105.10885708 5.3643992 -108.78165817 5.37832069 C-112.87979567 5.3932735 -116.97753523 5.38391016 -121.07568359 5.37231445 C-122.8916227 5.38378006 -122.8916227 5.38378006 -124.74424744 5.39547729 C-130.94082638 5.35672068 -135.5293375 5.00074386 -141 2 C-137.25 0.875 -137.25 0.875 -135 2 C-133.22611188 2.09332602 -131.4486734 2.12191465 -129.67233276 2.12025452 C-127.97696381 2.12231651 -127.97696381 2.12231651 -126.24734497 2.12442017 C-125.00153656 2.12082489 -123.75572815 2.11722961 -122.47216797 2.11352539 C-120.51126221 2.11374443 -120.51126221 2.11374443 -118.51074219 2.1139679 C-114.92005239 2.1142555 -111.3293958 2.10836466 -107.73871374 2.10139394 C-103.98841869 2.09515433 -100.23812293 2.09455612 -96.48782349 2.09336853 C-89.38343968 2.09025701 -82.27907122 2.08204603 -75.17469418 2.07201904 C-67.08774211 2.06085235 -59.00078933 2.05534605 -50.91383147 2.05032361 C-34.27587866 2.03986327 -17.63794129 2.02226728 -1 2 C-0.67 1.34 -0.34 0.68 0 0 Z " fill="#368BDD" transform="translate(307,241)"/>
<path d="M0 0 C0.82522659 -0.01022186 1.65045319 -0.02044373 2.50068665 -0.03097534 C5.21714645 -0.05867758 7.93258601 -0.05686068 10.64916992 -0.05224609 C12.54717889 -0.06002619 14.44518439 -0.06869681 16.34318542 -0.07821655 C20.31842338 -0.09312243 24.29330606 -0.09257318 28.26855469 -0.08203125 C33.34620666 -0.07045629 38.42239608 -0.10427376 43.4998064 -0.1507206 C47.41969714 -0.18028571 51.33923953 -0.18192644 55.25922203 -0.17570114 C57.13021423 -0.17672347 59.00122697 -0.18712204 60.87211037 -0.20732498 C78.44734794 -0.37380055 78.44734794 -0.37380055 85.2832489 4.96939087 C86.56713867 6.54931641 86.56713867 6.54931641 86.56713867 9.54931641 C85.24713867 9.21931641 83.92713867 8.88931641 82.56713867 8.54931641 C82.56713867 7.55931641 82.56713867 6.56931641 82.56713867 5.54931641 C80.91713867 5.54931641 79.26713867 5.54931641 77.56713867 5.54931641 C77.56713867 6.20931641 77.56713867 6.86931641 77.56713867 7.54931641 C76.24713867 7.21931641 74.92713867 6.88931641 73.56713867 6.54931641 C73.89713867 5.55931641 74.22713867 4.56931641 74.56713867 3.54931641 C64.16160726 3.43317795 53.75623147 3.34447727 43.35018253 3.29025555 C38.51756364 3.26422426 33.68539002 3.22894517 28.85302734 3.17211914 C24.1845662 3.11756758 19.51653183 3.08784727 14.84777641 3.07493019 C13.0716423 3.06573168 11.29553007 3.04776918 9.51957893 3.02066612 C-3.92106101 2.47004594 -3.92106101 2.47004594 -15.43286133 8.54931641 C-19.02386952 14.08222995 -18.63815358 19.27224983 -17.43286133 25.54931641 C-17.15442383 27.06525391 -17.15442383 27.06525391 -16.87036133 28.61181641 C-16.72598633 29.25119141 -16.58161133 29.89056641 -16.43286133 30.54931641 C-20.12057076 26.19111435 -21.43286133 22.39312912 -21.43286133 16.67431641 C-20.43545806 10.54908693 -16.54983951 6.25136691 -11.84346008 2.46743774 C-7.78541797 0.18519415 -4.53018745 -0.02920978 0 0 Z " fill="#4FC627" transform="translate(152.432861328125,262.45068359375)"/>
<path d="M0 0 C1.35927014 -0.0035063 2.71853614 -0.00917061 4.07778931 -0.01681519 C7.74943175 -0.03099886 11.42031948 -0.0140666 15.09188962 0.00946999 C18.94430763 0.02965833 22.79669673 0.02369536 26.64915466 0.0213623 C33.11600101 0.02141578 39.58255428 0.04111868 46.04931641 0.07324219 C53.51459072 0.11014666 60.97948161 0.11891462 68.44483525 0.11194468 C75.64233715 0.10562941 82.83970827 0.11641186 90.03718376 0.13591003 C93.09323942 0.14406216 96.14922804 0.14679764 99.20529366 0.1452179 C102.80631746 0.14433593 106.40697955 0.15863821 110.00790787 0.18444443 C111.95188356 0.19496746 113.89592111 0.19094616 115.83992004 0.18643188 C122.15644817 0.24783092 126.87570314 0.54501408 132.44311523 3.61523438 C133.43311523 4.11023438 133.43311523 4.11023438 134.44311523 4.61523438 C134.44311523 5.27523437 134.44311523 5.93523437 134.44311523 6.61523438 C136.42311523 7.11023438 136.42311523 7.11023438 138.44311523 7.61523438 C140.31094569 13.10198634 140.67895484 17.83716414 140.44311523 23.61523438 C140.11311523 23.61523438 139.78311523 23.61523438 139.44311523 23.61523438 C139.2381543 22.71160156 139.03319336 21.80796875 138.82202148 20.87695312 C138.55260742 19.69746094 138.28319336 18.51796875 138.00561523 17.30273438 C137.7387793 16.13097656 137.47194336 14.95921875 137.19702148 13.75195312 C136.4863704 9.5451223 136.4863704 9.5451223 133.81811523 6.61523438 C132.64249023 6.12023437 132.64249023 6.12023437 131.44311523 5.61523438 C130.04070084 4.85527916 130.04070084 4.85527916 128.60995483 4.07997131 C123.10866173 1.74358194 117.27745062 2.17290841 111.39868164 2.17944336 C110.09538406 2.16936752 108.79208649 2.15929169 107.44929504 2.14891052 C103.88925873 2.122516 100.32943901 2.11538162 96.76931429 2.11346316 C94.54113699 2.11132473 92.31301406 2.10490879 90.08485031 2.09697151 C82.30026528 2.06925421 74.51583391 2.0569616 66.73120117 2.05932617 C59.49245551 2.06112812 52.25438081 2.02947097 45.01580489 1.98209518 C38.78539416 1.94278127 32.555202 1.92677808 26.32466829 1.9286924 C22.61026456 1.92945474 18.89645785 1.92104821 15.1821785 1.88915825 C11.03643648 1.85453199 6.89218527 1.86840703 2.74633789 1.88647461 C1.52734299 1.86961609 0.30834808 1.85275757 -0.94758606 1.83538818 C-8.57724853 1.91974103 -13.96622797 3.18167822 -19.55688477 8.61523438 C-23.04391323 13.76319981 -24.20823644 18.38091165 -23.18579102 24.53710938 C-22.21582838 27.74220332 -20.56939586 29.95352615 -18.55688477 32.61523438 C-18.55688477 33.27523437 -18.55688477 33.93523437 -18.55688477 34.61523438 C-19.87688477 34.61523438 -21.19688477 34.61523438 -22.55688477 34.61523438 C-22.55688477 32.96523437 -22.55688477 31.31523437 -22.55688477 29.61523438 C-23.21688477 29.61523438 -23.87688477 29.61523438 -24.55688477 29.61523438 C-26.71768393 22.73392012 -26.43789843 17.54604627 -24.55688477 10.61523438 C-23.89688477 10.61523438 -23.23688477 10.61523438 -22.55688477 10.61523438 C-22.55688477 9.89335937 -22.55688477 9.17148438 -22.55688477 8.42773438 C-21.22425147 4.67970323 -19.49290104 3.66002918 -16.13533211 1.670578 C-10.95763814 -0.44862228 -5.51502187 -0.05805356 0 0 Z " fill="#E6FED9" transform="translate(103.556884765625,152.384765625)"/>
<path d="M0 0 C0.85919037 -0.00043808 1.71838074 -0.00087616 2.60360718 -0.00132751 C5.4281937 0.00075347 8.25217802 0.0240518 11.07666016 0.04760742 C13.04106319 0.05320583 15.00547042 0.05747477 16.96987915 0.06047058 C22.12876034 0.07190003 27.28738632 0.10135093 32.44616699 0.13458252 C37.71489002 0.16532435 42.98365446 0.17898471 48.25244141 0.1940918 C58.58198034 0.22622239 68.91133024 0.27739581 79.24072266 0.34057617 C79.24072266 1.00057617 79.24072266 1.66057617 79.24072266 2.34057617 C80.31322266 2.50557617 81.38572266 2.67057617 82.49072266 2.84057617 C84.98064979 3.53897037 86.01905618 4.05788915 87.63134766 6.11401367 C90.41295033 11.38338775 90.41295033 11.38338775 89.83447266 14.59838867 C89.54056641 15.46077148 89.54056641 15.46077148 89.24072266 16.34057617 C88.45947266 14.42000326 87.67822266 12.49943034 86.89697266 10.57885742 C84.04839848 6.72925128 79.8616253 3.92278114 75.15246201 2.87669182 C72.93206729 2.70282606 70.7601042 2.6754802 68.53320312 2.70947266 C67.7028656 2.70231735 66.87252808 2.69516205 66.01702881 2.68778992 C63.29674767 2.6710033 60.5781378 2.69024213 57.85791016 2.71166992 C55.9555752 2.71084045 54.05324032 2.70837813 52.15090942 2.70436096 C48.17492966 2.70151005 44.19951544 2.71613777 40.22363281 2.74365234 C35.13478104 2.77778041 30.04693686 2.77169472 24.95803642 2.75298977 C21.03398274 2.74240922 17.11016251 2.75136642 13.18613052 2.76637459 C11.30990416 2.77154597 9.43365332 2.7710873 7.55743027 2.76482964 C4.9342396 2.75936275 2.31248051 2.77979705 -0.31054688 2.80712891 C-1.46558212 2.79734009 -1.46558212 2.79734009 -2.64395142 2.78735352 C-7.83825198 2.87911291 -10.69870939 4.16780564 -14.75927734 7.34057617 C-15.74927734 7.83557617 -15.74927734 7.83557617 -16.75927734 8.34057617 C-16.75927734 7.35057617 -16.75927734 6.36057617 -16.75927734 5.34057617 C-16.09927734 5.34057617 -15.43927734 5.34057617 -14.75927734 5.34057617 C-14.75927734 4.68057617 -14.75927734 4.02057617 -14.75927734 3.34057617 C-9.64376932 0.25628097 -5.78264325 -0.0778374 0 0 Z " fill="#D2FCC2" transform="translate(152.75927734375,260.659423828125)"/>
<path d="M0 0 C2 1 2 1 3 3 C4.08914703 2.99777939 5.17829407 2.99555878 6.30044556 2.99327087 C16.57044411 2.97298896 26.8404386 2.9580035 37.11045265 2.94818783 C42.39021261 2.94297185 47.66995639 2.9358975 52.94970703 2.92456055 C58.04604628 2.91368605 63.14236998 2.90771347 68.23871994 2.90512276 C70.18194193 2.90327674 72.12516309 2.89967195 74.06837845 2.89426994 C76.79251183 2.886999 79.51658112 2.88601162 82.24072266 2.88647461 C83.44266266 2.8810817 83.44266266 2.8810817 84.66888428 2.87557983 C88.87150621 2.8832962 92.89153154 2.99684998 97 4 C98.25 6 98.25 6 99 8 C99.99 8.495 99.99 8.495 101 9 C101 9.66 101 10.32 101 11 C101.66 11 102.32 11 103 11 C103.495 14.465 103.495 14.465 104 18 C101.9058533 16.11526797 100.78363675 14.59323709 99.4375 12.0625 C95.93877482 7.6666658 92.40684952 6.3530949 87 5 C80.99077709 4.44677428 75.01807254 4.48414771 68.98828125 4.5390625 C67.24814491 4.54145152 65.50800595 4.54235128 63.76786804 4.5418396 C60.13764071 4.54495254 56.50781252 4.56140475 52.87768555 4.58837891 C48.23760224 4.62243269 43.59795449 4.63000434 38.95776081 4.62848854 C35.37084337 4.62903362 31.78402005 4.64002159 28.19713402 4.65449142 C26.48640846 4.66082827 24.77567233 4.66479098 23.06493568 4.66627884 C20.67242055 4.67064089 18.28035665 4.6882012 15.88793945 4.70947266 C15.19010849 4.70856628 14.49227753 4.70765991 13.77330017 4.70672607 C6.71200752 4.79800291 1.19179447 6.09663856 -4 11 C-5.76323505 13.12603185 -5.76323505 13.12603185 -7 15 C-8 12 -8 12 -7.0625 9.8125 C-6.5365625 8.9153125 -6.5365625 8.9153125 -6 8 C-5.01 8 -4.02 8 -3 8 C-3 6.68 -3 5.36 -3 4 C-2.34 3.34 -1.68 2.68 -1 2 C-0.67 1.34 -0.34 0.68 0 0 Z " fill="#DFFCFE" transform="translate(166,96)"/>
<path d="M0 0 C6.75 1.75 6.75 1.75 9 4 C11.70874625 4.21754174 14.31832271 4.31141101 17.02978516 4.31884766 C18.27380348 4.33391609 18.27380348 4.33391609 19.54295349 4.34928894 C22.29164926 4.38024662 25.0402471 4.39719084 27.7890625 4.4140625 C29.6919337 4.43276404 31.59479652 4.45233668 33.49765015 4.4727478 C38.51174998 4.52418217 43.52587674 4.56374724 48.5401001 4.60089111 C53.65440593 4.64086007 58.76859869 4.69198474 63.8828125 4.7421875 C73.9217957 4.83908055 83.96084258 4.92344236 94 5 C90.31992005 7.35931113 86.75729152 7.2896065 82.52856445 7.2746582 C81.78165848 7.27976913 81.0347525 7.28488007 80.26521301 7.29014587 C77.79782066 7.30403571 75.33070805 7.30308478 72.86328125 7.30078125 C71.14177853 7.30467014 69.42027677 7.30900521 67.69877625 7.31376648 C64.08829645 7.32122857 60.47791441 7.32093868 56.86743164 7.31567383 C52.25871252 7.30989659 47.65039757 7.32676777 43.04174519 7.3500185 C39.48391917 7.36481459 35.92618897 7.36561928 32.36833763 7.36250877 C30.67041413 7.36301961 28.97248493 7.36821244 27.27459145 7.37832069 C10.55035552 7.46562524 10.55035552 7.46562524 3 4 C0.9375 1.8125 0.9375 1.8125 0 0 Z " fill="#65D047" transform="translate(136,293)"/>
<path d="M0 0 C0 0.99 0 1.98 0 3 C-4.150987 4.15922085 -8.15937817 4.13278571 -12.44042969 4.11352539 C-13.28957443 4.11367142 -14.13871918 4.11381744 -15.01359558 4.1139679 C-17.8163815 4.11327201 -20.61910071 4.10549476 -23.421875 4.09765625 C-25.36671919 4.09579092 -27.31156386 4.09436756 -29.25640869 4.09336853 C-34.37247009 4.08955242 -39.48850305 4.07972984 -44.60455322 4.06866455 C-49.82620865 4.05843098 -55.04786868 4.05386674 -60.26953125 4.04882812 C-70.51303332 4.03810678 -80.75651429 4.0210412 -91 4 C-88.06123792 1.06123792 -84.94149319 1.69998007 -81.00195312 1.69702148 C-80.17582016 1.68858215 -79.34968719 1.68014282 -78.4985199 1.67144775 C-75.75942432 1.6455936 -73.0204366 1.63351217 -70.28125 1.62109375 C-68.38316993 1.60492743 -66.48509824 1.58774836 -64.58703613 1.56959534 C-59.58355575 1.52383156 -54.58006435 1.48906637 -49.57647705 1.45739746 C-41.56667556 1.40559317 -33.55699719 1.34048711 -25.54734802 1.26918221 C-22.74320563 1.24629337 -19.93907895 1.23005737 -17.1348877 1.21446228 C-15.42260567 1.20105834 -13.71032527 1.18744377 -11.99804688 1.17358398 C-11.21356674 1.17097061 -10.42908661 1.16835724 -9.62083435 1.16566467 C-6.19685879 1.13263217 -3.21813086 0 0 0 Z " fill="#D7F6FE" transform="translate(260,135)"/>
<path d="M0 0 C0.68743699 2.4551321 1.06703968 4.69721268 1.3125 7.25 C2.27235529 12.48557429 4.07600739 17.00966281 7.8125 20.875 C13.26173388 23.67746314 18.76152561 24.29637308 24.79614258 24.2746582 C25.54188034 24.27976913 26.2876181 24.28488007 27.05595398 24.29014587 C29.50222985 24.30395704 31.94822121 24.30309123 34.39453125 24.30078125 C36.10935061 24.30467345 37.82416902 24.3090092 39.53898621 24.31376648 C43.12734099 24.32121095 46.71559736 24.32095076 50.30395508 24.31567383 C54.87998103 24.3098882 59.45560103 24.32679682 64.03155994 24.3500185 C67.57226376 24.36482348 71.1128714 24.36561827 74.65360069 24.36250877 C76.33953338 24.36301881 78.02547191 24.36819627 79.71137428 24.37832069 C88.50424085 24.42464082 96.72198998 24.4102668 105 21 C104.505 23.475 104.505 23.475 104 26 C100.09550671 27.30149776 96.41920358 27.09295565 92.35351562 27.03759766 C91.4703215 27.02959641 90.58712738 27.02159515 89.6771698 27.01335144 C86.75345132 26.98543797 83.82988042 26.94997191 80.90625 26.9140625 C78.87748542 26.89229658 76.84871743 26.87084691 74.81994629 26.84970093 C70.56627968 26.80418358 66.31267623 26.75495865 62.05908203 26.703125 C56.6013599 26.63689619 51.1435877 26.57962385 45.68573761 26.52509499 C41.49590839 26.482288 37.30614146 26.4348534 33.11637878 26.38599777 C31.1037094 26.36306845 29.09102328 26.34156284 27.07832336 26.32149124 C24.26763133 26.29274501 21.45708342 26.25780673 18.64648438 26.22119141 C17.81106613 26.2138649 16.97564789 26.20653839 16.11491394 26.19898987 C12.83182256 26.15080789 10.13569847 26.04523282 7 25 C6.67 24.01 6.34 23.02 6 22 C5.01 21.34 4.02 20.68 3 20 C2.3125 17.375 2.3125 17.375 2 15 C1.01 14.67 0.02 14.34 -1 14 C-1.33333333 12.33333333 -1.66666667 10.66666667 -2 9 C-2.309375 7.700625 -2.309375 7.700625 -2.625 6.375 C-3 4 -3 4 -2 1 C-1.34 0.67 -0.68 0.34 0 0 Z " fill="#DFFCD4" transform="translate(131,275)"/>
<path d="M0 0 C3.11148145 2.8286195 4.77982092 5.32817511 5.3359375 9.55078125 C5.4270903 15.995284 4.91655741 19.81320775 1 25 C-4.11291743 29.62597292 -7.31149481 30.14419251 -14.02978516 30.11352539 C-14.85913071 30.11367142 -15.68847626 30.11381744 -16.54295349 30.1139679 C-19.29168285 30.11326971 -22.04034494 30.10548171 -24.7890625 30.09765625 C-26.69192467 30.09579174 -28.59478732 30.09436799 -30.49765015 30.09336853 C-35.51181356 30.08954599 -40.52594811 30.07971793 -45.5401001 30.06866455 C-50.65433359 30.05844479 -55.76857174 30.0538697 -60.8828125 30.04882812 C-70.92188769 30.03809545 -80.96094145 30.02102216 -91 30 C-91.33 29.34 -91.66 28.68 -92 28 C-90.43145515 28.00666183 -90.43145515 28.00666183 -88.83122253 28.01345825 C-78.9870697 28.05396307 -69.14293373 28.08396454 -59.29871655 28.10362434 C-54.23743917 28.11407133 -49.17622895 28.12824723 -44.11499023 28.15087891 C-39.23262686 28.17257465 -34.35032816 28.18456173 -29.4679203 28.18975449 C-27.6031524 28.19345612 -25.73838813 28.20068429 -23.87364769 28.21146011 C-21.26619123 28.2259316 -18.65900369 28.22797977 -16.05151367 28.22705078 C-15.27683746 28.23424133 -14.50216125 28.24143188 -13.70401001 28.24884033 C-9.92155618 28.23421237 -8.22811298 28.15207532 -5 26 C-4.01 26 -3.02 26 -2 26 C-2 23.69 -2 21.38 -2 19 C-0.68 18.34 0.64 17.68 2 17 C1.505 15.02 1.505 15.02 1 13 C1.33 13 1.66 13 2 13 C2.23509196 8.18061476 1.45184478 4.53701494 0 0 Z " fill="#1370D2" transform="translate(264,106)"/>
<path d="M0 0 C1.81711674 3.63423349 -0.45759055 7.87215185 -1.50390625 11.640625 C-2.07440629 15.5038536 -1.64432935 17.48419671 0 21 C1.51974854 22.86486115 1.51974854 22.86486115 3.375 24.25 C4.25285156 24.96929687 4.25285156 24.96929687 5.1484375 25.703125 C9.7473528 28.92430618 13.51575508 29.30308721 19.07324219 29.31884766 C20.28843788 29.33391609 20.28843788 29.33391609 21.52818298 29.34928894 C24.20107323 29.38013466 26.87386324 29.3971599 29.546875 29.4140625 C31.40204735 29.43277303 33.25721119 29.45234636 35.11236572 29.4727478 C39.99162779 29.52408711 44.87091746 29.56370324 49.75030518 29.60089111 C54.73074175 29.64091945 59.71106334 29.69201714 64.69140625 29.7421875 C74.46085675 29.83896811 84.23037215 29.92336611 94 30 C94 30.33 94 30.66 94 31 C83.05565651 31.11604734 72.11146032 31.20479331 61.16662598 31.25906086 C56.08400683 31.28511179 51.00180982 31.32042751 45.91943359 31.37719727 C41.01107659 31.43167773 36.10312465 31.4614544 31.19448853 31.47438622 C29.32542549 31.48359735 27.45638366 31.50158477 25.5874939 31.52865028 C22.96149462 31.5651546 20.33715123 31.56993656 17.7109375 31.56762695 C16.94488693 31.58560333 16.17883636 31.60357971 15.38957214 31.62210083 C8.76756193 31.55942501 4.1310954 28.9400857 -0.65567017 24.44533253 C-4.79663851 19.9932434 -4.64947192 14.87271386 -4.44140625 9.046875 C-3.85237621 4.98100395 -2.74342225 3.00061808 0 0 Z " fill="#357DBC" transform="translate(162,106)"/>
<path d="M0 0 C3.1875 1.5 3.1875 1.5 5 3 C3 4 3 4 -0.125 3.0625 C-1.07375 2.711875 -2.0225 2.36125 -3 2 C-3.33 2.66 -3.66 3.32 -4 4 C-5.32 4 -6.64 4 -8 4 C-8.66 5.65 -9.32 7.3 -10 9 C-11.65 9 -13.3 9 -15 9 C-15 8.01 -15 7.02 -15 6 C-15.99 6.33 -16.98 6.66 -18 7 C-18.74259349 9.31029085 -19.411438 11.645752 -20 14 C-20.33 14.33 -20.66 14.66 -21 15 C-21.23192865 16.51469448 -21.41215238 18.03754562 -21.5625 19.5625 C-21.64628906 20.38878906 -21.73007813 21.21507812 -21.81640625 22.06640625 C-21.87699219 22.70449219 -21.93757813 23.34257812 -22 24 C-24.51393346 20.22909981 -24.07860219 18.60656636 -23.48046875 14.29296875 C-22.82284197 11.15453852 -21.74456708 8.68394936 -20 6 C-19.01 5.67 -18.02 5.34 -17 5 C-17 4.34 -17 3.68 -17 3 C-11.53249039 -0.54649272 -6.31674985 -0.74879406 0 0 Z " fill="#48CA1B" transform="translate(103,263)"/>
<path d="M0 0 C2.66354983 2.07164987 4.99573437 4.23810401 7.25 6.75 C7.25 7.41 7.25 8.07 7.25 8.75 C6.26 9.08 5.27 9.41 4.25 9.75 C3.59 9.09 2.93 8.43 2.25 7.75 C2.58 6.76 2.91 5.77 3.25 4.75 C1.93 4.75 0.61 4.75 -0.75 4.75 C-1.08 5.41 -1.41 6.07 -1.75 6.75 C-1.75 4.77 -1.75 2.79 -1.75 0.75 C-3.73 0.75 -5.71 0.75 -7.75 0.75 C-7.75 0.09 -7.75 -0.57 -7.75 -1.25 C-9.54750065 -0.68489946 -11.33791623 -0.09722594 -13.125 0.5 C-14.12273437 0.82484375 -15.12046875 1.1496875 -16.1484375 1.484375 C-19.04792173 2.8949349 -19.70837282 3.76316544 -20.75 6.75 C-21.41 6.75 -22.07 6.75 -22.75 6.75 C-25.71347337 12.49172966 -25.48366969 18.70750601 -23.75 24.8125 C-23.42 25.781875 -23.09 26.75125 -22.75 27.75 C-24.75 26.75 -24.75 26.75 -25.8515625 24.5234375 C-27.50300778 19.42549773 -27.76546326 13.74149987 -26.02734375 8.62109375 C-23.40002302 3.69619699 -19.95996962 0.80475823 -15 -1.5625 C-9.71629077 -2.68020772 -4.92777679 -2.23989854 0 0 Z " fill="#307AC2" transform="translate(311.75,102.25)"/>
<path d="M0 0 C0.99 0.33 1.98 0.66 3 1 C-1.07090162 5.09078377 -3.55677514 6.56908996 -9.33111572 6.62210083 C-10.53305573 6.59513626 -10.53305573 6.59513626 -11.75927734 6.56762695 C-12.61846771 6.56835709 -13.47765808 6.56908722 -14.36288452 6.56983948 C-17.18788957 6.56637066 -20.0112224 6.52754386 -22.8359375 6.48828125 C-24.80033467 6.47895059 -26.76474351 6.47183567 -28.72915649 6.46684265 C-33.88824845 6.4477928 -39.04663158 6.39870909 -44.20544434 6.34332275 C-49.47410494 6.29208698 -54.74288058 6.26931935 -60.01171875 6.24414062 C-70.3414565 6.19058861 -80.6706692 6.10529998 -91 6 C-91 5.67 -91 5.34 -91 5 C-89.91893982 4.99191315 -88.83787964 4.98382629 -87.72406006 4.97549438 C-77.5416286 4.89804722 -67.35933099 4.81031148 -57.17707443 4.71247292 C-51.94213263 4.66250326 -46.70721107 4.61617319 -41.47216797 4.578125 C-36.42112199 4.54128078 -31.37024511 4.49492302 -26.31934357 4.44193649 C-24.39124769 4.42338798 -22.46311556 4.40828171 -20.53496552 4.39665604 C-17.83661032 4.3798015 -15.13864282 4.35076828 -12.44042969 4.31884766 C-11.64129654 4.31668747 -10.84216339 4.31452728 -10.01881409 4.31230164 C-6.21325879 4.25469958 -3.22656711 4.1475897 0 2 C0 1.34 0 0.68 0 0 Z " fill="#48CD14" transform="translate(236,292)"/>
<path d="M0 0 C0 0.99 0 1.98 0 3 C-0.66 3.66 -1.32 4.32 -2 5 C-2.64767793 7.57061311 -2.64767793 7.57061311 -3 10 C-3.33 9.34 -3.66 8.68 -4 8 C-5.65 8.33 -7.3 8.66 -9 9 C-8.01 10.485 -8.01 10.485 -7 12 C-12.28 12 -17.56 12 -23 12 C-22.01 11.01 -21.02 10.02 -20 9 C-22.97 8.505 -22.97 8.505 -26 8 C-25.67 6.68 -25.34 5.36 -25 4 C-24.28714844 4.32355469 -23.57429688 4.64710938 -22.83984375 4.98046875 C-17.1503173 7.02306353 -11.12163825 6.79561434 -5.5 4.6875 C-3.37988781 3.25642427 -1.65986363 1.93650757 0 0 Z " fill="#F6FDF1" transform="translate(112,292)"/>
<path d="M0 0 C0.81837845 0.42252045 0.81837845 0.42252045 1.65328979 0.85357666 C9.43895232 4.45354727 16.73961359 4.60430688 25.1953125 4.609375 C26.63835478 4.62438598 28.08138006 4.64111916 29.52438354 4.65948486 C33.28898994 4.70284433 37.05336475 4.72308681 40.81817627 4.73822021 C44.67319254 4.75790584 48.52796276 4.79986218 52.3828125 4.83984375 C59.92180833 4.91480469 67.4606998 4.96530129 75 5 C75 5.33 75 5.66 75 6 C66.25480052 6.02321916 57.50961172 6.04096379 48.76438808 6.05181217 C44.70318446 6.05702009 40.642002 6.06407962 36.58081055 6.07543945 C32.65804398 6.08634283 28.73529772 6.09229258 24.81251717 6.09487724 C23.31948591 6.0967181 21.82645571 6.10031275 20.33343315 6.10573006 C18.23455317 6.11303949 16.13575599 6.11398679 14.03686523 6.11352539 C12.24816261 6.11685631 12.24816261 6.11685631 10.42332458 6.12025452 C6.88673167 5.99602111 3.49154568 5.56238201 0 5 C0 3.35 0 1.7 0 0 Z " fill="#EEFFE3" transform="translate(85,187)"/>
<path d="M0 0 C-0.33 0.66 -0.66 1.32 -1 2 C-1.99 2 -2.98 2 -4 2 C-3.67 3.65 -3.34 5.3 -3 7 C-1.68 6.34 -0.36 5.68 1 5 C1 4.34 1 3.68 1 3 C1.66 3 2.32 3 3 3 C2.52354792 7.28806873 1.34097516 9.26647487 -2 12 C-2.66 12 -3.32 12 -4 12 C-4 11.01 -4 10.02 -4 9 C-6.31 9.33 -8.62 9.66 -11 10 C-11.33 9.34 -11.66 8.68 -12 8 C-10.35 7.67 -8.7 7.34 -7 7 C-7 6.34 -7 5.68 -7 5 C-9.475 4.01 -9.475 4.01 -12 3 C-12 2.67 -12 2.34 -12 2 C-7.8803623 0.70756464 -4.33168317 -0.26252625 0 0 Z " fill="#38D00A" transform="translate(237,176)"/>
<path d="M0 0 C0.99 0.33 1.98 0.66 3 1 C1.73046875 2.46484375 0.4609375 3.9296875 -0.80859375 5.39453125 C-4.09338049 9.820916 -3.44919006 15.76693584 -3 21 C-1.6351132 24.40241824 -1.6351132 24.40241824 0 27 C0 27.99 0 28.98 0 30 C-4.78327317 27.5470394 -4.78327317 27.5470394 -5.6484375 25.36328125 C-6.14244918 22.04242497 -6.17109527 18.79390744 -6.1875 15.4375 C-6.19974609 14.76525391 -6.21199219 14.09300781 -6.22460938 13.40039062 C-6.23562975 9.70121763 -6.10685378 8.16028067 -4 5 C-3.34 5 -2.68 5 -2 5 C-1.855625 4.360625 -1.71125 3.72125 -1.5625 3.0625 C-1 1 -1 1 0 0 Z " fill="#DDF3FC" transform="translate(289,103)"/>
<path d="M0 0 C0 0.66 0 1.32 0 2 C-1.1446875 3.0828125 -1.1446875 3.0828125 -2.3125 4.1875 C-5.77566346 7.81174083 -7.87381642 11.10787241 -8.09765625 16.23828125 C-7.72681 21.62007444 -6.2199084 24.74141147 -3 29 C-3 29.66 -3 30.32 -3 31 C-4.32 31 -5.64 31 -7 31 C-7 29.35 -7 27.7 -7 26 C-7.66 26 -8.32 26 -9 26 C-11.16079916 19.11868574 -10.88101367 13.93081189 -9 7 C-8.34 7 -7.68 7 -7 7 C-6.9175 6.21625 -6.835 5.4325 -6.75 4.625 C-6 2 -6 2 -4.0625 0.6875 C-2 0 -2 0 0 0 Z " fill="#DCFCCD" transform="translate(88,156)"/>
<path d="M0 0 C0.556875 0.268125 1.11375 0.53625 1.6875 0.8125 C0.32625 1.6478125 0.32625 1.6478125 -1.0625 2.5 C-4.83387965 5.18348167 -7.61772711 7.28562052 -8.8828125 11.88671875 C-9.75754074 17.36772868 -8.94331328 20.83274629 -6.3125 25.8125 C-5.755625 26.946875 -5.19875 28.08125 -4.625 29.25 C-4.191875 30.095625 -3.75875 30.94125 -3.3125 31.8125 C-6.96390824 30.63883307 -8.77638424 28.42550482 -10.546875 25.07421875 C-12.54515741 19.17112939 -12.35380895 12.9336849 -9.625 7.375 C-8.861875 6.529375 -8.09875 5.68375 -7.3125 4.8125 C-6.4875 3.843125 -5.6625 2.87375 -4.8125 1.875 C-2.3125 -0.1875 -2.3125 -0.1875 0 0 Z " fill="#2379CB" transform="translate(169.3125,210.1875)"/>
<path d="M0 0 C0.99 0.33 1.98 0.66 3 1 C3.33333333 2.33333333 3.66666667 3.66666667 4 5 C4.99 5.33 5.98 5.66 7 6 C7.33 5.01 7.66 4.02 8 3 C10 6.75 10 6.75 10 9 C15.61 9 21.22 9 27 9 C23.85594437 12.14405563 20.94840482 12.17927959 16.6875 12.25 C12.03313553 12.1947371 8.89260361 11.75330499 5 9 C2.3061755 6.16056336 0.57929776 3.91025991 0 0 Z " fill="#53C528" transform="translate(81,287)"/>
<path d="M0 0 C-0.125 1.8125 -0.125 1.8125 -1 4 C-1.94875 4.4125 -2.8975 4.825 -3.875 5.25 C-7.62813547 7.35175586 -8.3512211 8.76330734 -9.60546875 12.74609375 C-10.28288829 16.61610441 -9.73462825 20.17411426 -9 24 C-8.7215625 25.5159375 -8.7215625 25.5159375 -8.4375 27.0625 C-8.293125 27.701875 -8.14875 28.34125 -8 29 C-11.68770944 24.64179794 -13 20.84381272 -13 15.125 C-12.07883599 9.34275359 -8.32243072 4.93754578 -3.92578125 1.26953125 C-2 0 -2 0 0 0 Z " fill="#5CC434" transform="translate(144,264)"/>
<path d="M0 0 C3.29419074 0.80524663 5.46696935 1.43020861 7.8125 3.9375 C10.06018542 9.73416241 10.59462036 15.66115993 9.0625 21.6875 C8.711875 22.450625 8.36125 23.21375 8 24 C6.99890485 20.68929162 6.89643866 17.69915231 6.9375 14.25 C6.94652344 13.26515625 6.95554688 12.2803125 6.96484375 11.265625 C6.97644531 10.51796875 6.98804688 9.7703125 7 9 C6.20207031 8.74476563 5.40414062 8.48953125 4.58203125 8.2265625 C2 7 2 7 0.6875 3.375 C0.460625 2.26125 0.23375 1.1475 0 0 Z " fill="#59C930" transform="translate(233,158)"/>
<path d="M0 0 C-1.32 0.33 -2.64 0.66 -4 1 C-4 1.66 -4 2.32 -4 3 C-4.62390625 3.57234375 -5.2478125 4.1446875 -5.890625 4.734375 C-8.46828409 7.5029718 -8.95240053 9.58104244 -9.75 13.25 C-9.99234375 14.32765625 -10.2346875 15.4053125 -10.484375 16.515625 C-10.65453125 17.33546875 -10.8246875 18.1553125 -11 19 C-11.66 19 -12.32 19 -13 19 C-14.19876651 13.55106131 -13.91360308 10.77830905 -11 6 C-10.34 6 -9.68 6 -9 6 C-8.938125 5.401875 -8.87625 4.80375 -8.8125 4.1875 C-8 2 -8 2 -5.625 0.1875 C-3 -1 -3 -1 0 0 Z " fill="#E0FBD4" transform="translate(90,265)"/>
<path d="M0 0 C9.80843419 0.61970499 9.80843419 0.61970499 14 4 C14 4.66 14 5.32 14 6 C15.32 6.33 16.64 6.66 18 7 C19.86783046 12.48675196 20.2358396 17.22192976 20 23 C19.67 23 19.34 23 19 23 C18.79503906 22.09636719 18.59007812 21.19273437 18.37890625 20.26171875 C18.10949219 19.08222656 17.84007812 17.90273437 17.5625 16.6875 C17.29566406 15.51574219 17.02882812 14.34398437 16.75390625 13.13671875 C16.02469672 8.88580608 16.02469672 8.88580608 13.296875 5.9453125 C10.63657978 4.85042909 7.95931491 3.84261247 5.25 2.875 C4.26515625 2.52179688 3.2803125 2.16859375 2.265625 1.8046875 C1.51796875 1.53914062 0.7703125 1.27359375 0 1 C0 0.67 0 0.34 0 0 Z " fill="#DAFDCD" transform="translate(224,153)"/>
<path d="M0 0 C2.5166238 2.5166238 2.38193779 3.56490708 2.5 7.0625 C2.39479991 13.21265928 0.3870729 17.67002566 -4 22 C-6.70703125 23.24609375 -6.70703125 23.24609375 -9 24 C-8.21625 23.113125 -7.4325 22.22625 -6.625 21.3125 C-4.42843009 18.69279481 -3.06209659 16.28284399 -2 13 C-1.34 13 -0.68 13 0 13 C0 8.71 0 4.42 0 0 Z " fill="#2475C5" transform="translate(319,111)"/>
<path d="M0 0 C0 0.66 0 1.32 0 2 C-0.78375 2.391875 -1.5675 2.78375 -2.375 3.1875 C-5.91023992 5.62849899 -6.09124243 7.91059093 -7 12 C-7.33 12.33 -7.66 12.66 -8 13 C-8.23192865 14.51469448 -8.41215238 16.03754562 -8.5625 17.5625 C-8.64628906 18.38878906 -8.73007813 19.21507812 -8.81640625 20.06640625 C-8.87699219 20.70449219 -8.93757813 21.34257812 -9 22 C-11.51393346 18.22909981 -11.07860219 16.60656636 -10.48046875 12.29296875 C-9.82284197 9.15453852 -8.74456708 6.68394936 -7 4 C-6.01 3.67 -5.02 3.34 -4 3 C-4 2.34 -4 1.68 -4 1 C-2 0 -2 0 0 0 Z " fill="#63C73F" transform="translate(90,265)"/>
<path d="M0 0 C5.40718817 -0.57934159 8.10649656 -0.34220083 12.5 3 C13.68193081 3.98191175 14.85423174 4.97612198 16 6 C15.67 6.66 15.34 7.32 15 8 C13.68 7.67 12.36 7.34 11 7 C11 6.01 11 5.02 11 4 C9.35 4 7.7 4 6 4 C6 4.66 6 5.32 6 6 C4.68 5.67 3.36 5.34 2 5 C2.33 4.01 2.66 3.02 3 2 C2.01 1.34 1.02 0.68 0 0 Z " fill="#4BC91F" transform="translate(224,264)"/>
<path d="M0 0 C3.3 0 6.6 0 10 0 C10.66 1.32 11.32 2.64 12 4 C12.66 4.33 13.32 4.66 14 5 C14 5.66 14 6.32 14 7 C14.66 7 15.32 7 16 7 C16.33 9.31 16.66 11.62 17 14 C14.9058533 12.11526797 13.78363675 10.59323709 12.4375 8.0625 C9.04147738 3.79570235 5.08264156 2.6489486 0 1 C0 0.67 0 0.34 0 0 Z " fill="#D7F0FC" transform="translate(253,100)"/>
<path d="M0 0 C0.90123561 3.01329159 1.08996269 5.49438323 0.8125 8.625 C0.72935547 9.78902344 0.72935547 9.78902344 0.64453125 10.9765625 C0 13 0 13 -2.05078125 14.2734375 C-2.69402344 14.51320312 -3.33726562 14.75296875 -4 15 C-5 12 -5 12 -5 10 C-5.66 9.67 -6.32 9.34 -7 9 C-6.21625 8.2575 -5.4325 7.515 -4.625 6.75 C-2.43495469 4.45566682 -1.17268614 2.87841142 0 0 Z " fill="#F8FAF6" transform="translate(320,233)"/>
<path d="M0 0 C0.33 0 0.66 0 1 0 C1.6434863 4.35149646 2.14426806 8.59715257 2 13 C-0.375 16.1875 -0.375 16.1875 -3 18 C-3.33 18.66 -3.66 19.32 -4 20 C-5.65 19.67 -7.3 19.34 -9 19 C-8.59007812 18.54109375 -8.18015625 18.0821875 -7.7578125 17.609375 C-7.21898437 16.99578125 -6.68015625 16.3821875 -6.125 15.75 C-5.59132813 15.14671875 -5.05765625 14.5434375 -4.5078125 13.921875 C-1.94721593 10.65810943 -0.78698218 7.86982178 -0.375 3.75 C-0.25125 2.5125 -0.1275 1.275 0 0 Z " fill="#D2EEFC" transform="translate(269,116)"/>
<path d="M0 0 C1.81711674 3.63423349 -0.45759055 7.87215185 -1.50390625 11.640625 C-2.06669438 15.45163124 -1.39407785 17.46234009 0 21 C0 21.99 0 22.98 0 24 C-4.59801096 19.1009288 -4.58275993 15.60392736 -4.40625 9.1171875 C-3.86767765 4.98468044 -2.77874312 3.03925029 0 0 Z " fill="#2E7ED0" transform="translate(162,106)"/>
<path d="M0 0 C7.76785714 -0.66964286 7.76785714 -0.66964286 11.4375 2.25 C14.76447498 5.82041217 14.76447498 5.82041217 15 9 C14.01 9.33 13.02 9.66 12 10 C11.34 9.34 10.68 8.68 10 8 C10.33 7.01 10.66 6.02 11 5 C9.68 5 8.36 5 7 5 C6.67 5.66 6.34 6.32 6 7 C6 5.02 6 3.04 6 1 C4.02 1 2.04 1 0 1 C0 0.67 0 0.34 0 0 Z " fill="#1C76D0" transform="translate(304,102)"/>
<path d="M0 0 C3.10813959 2.97300308 4.16958106 4.80734349 4.3125 9.125 C4.2558275 14.14456441 2.85511876 17.89094394 0 22 C-2.25 24 -2.25 24 -4 25 C-4 23.68 -4 22.36 -4 21 C-3.01 21 -2.02 21 -1 21 C1.04301154 16.47618873 2.00956295 11.83628305 3 7 C2.34 7 1.68 7 1 7 C0.67 4.69 0.34 2.38 0 0 Z " fill="#58C230" transform="translate(112,271)"/>
<path d="M0 0 C2.5354674 2.5354674 2.35408781 3.60206149 2.4375 7.125 C2.3561171 12.74042026 0.89340477 16.8824295 -3 21 C-3.66 21 -4.32 21 -5 21 C-4.690625 20.236875 -4.38125 19.47375 -4.0625 18.6875 C-3.32106407 16.81210323 -2.63771783 14.91315348 -2 13 C-1.34 13 -0.68 13 0 13 C0 8.71 0 4.42 0 0 Z " fill="#2777C8" transform="translate(319,220)"/>
<path d="M0 0 C0.625 1.8125 0.625 1.8125 1 4 C0.01 5.485 0.01 5.485 -1 7 C-1.45601261 9.50896686 -1.45601261 9.50896686 -1.625 12.1875 C-1.69976562 13.08855469 -1.77453125 13.98960937 -1.8515625 14.91796875 C-1.90054688 15.60503906 -1.94953125 16.29210937 -2 17 C-1.01 16.67 -0.02 16.34 1 16 C1 18.31 1 20.62 1 23 C-1.77160662 20.60633973 -3.07263207 18.55491039 -4 15 C-4.01044519 9.34915168 -2.89674475 4.91187154 0 0 Z " fill="#53C428" transform="translate(83,161)"/>
<path d="M0 0 C0.33 0 0.66 0 1 0 C1.02692484 2.29160319 1.04636124 4.58329546 1.0625 6.875 C1.07410156 8.15117187 1.08570313 9.42734375 1.09765625 10.7421875 C1 14 1 14 0 16 C-0.66 16 -1.32 16 -2 16 C-2 16.66 -2 17.32 -2 18 C-3.65 18.33 -5.3 18.66 -7 19 C-6.66226563 18.55011719 -6.32453125 18.10023438 -5.9765625 17.63671875 C-2.06413671 11.99423184 -0.83301752 6.76360492 0 0 Z " fill="#D4F9C2" transform="translate(243,277)"/>
<path d="M0 0 C0.66 0.33 1.32 0.66 2 1 C1.67 1.66 1.34 2.32 1 3 C0.08799383 11.35137081 1.14046691 17.12723177 6 24 C5.01 24 4.02 24 3 24 C2.34 22.35 1.68 20.7 1 19 C0.34 19 -0.32 19 -1 19 C-2.27964684 15.20880748 -1.92801328 11.76395701 -1.625 7.8125 C-1.53476563 6.56082031 -1.44453125 5.30914062 -1.3515625 4.01953125 C-1 1 -1 1 0 0 Z " fill="#D0EFFB" transform="translate(158,218)"/>
<path d="M0 0 C0 0.99 0 1.98 0 3 C-0.66 3.66 -1.32 4.32 -2 5 C-2.64767793 7.57061311 -2.64767793 7.57061311 -3 10 C-3.33 9.34 -3.66 8.68 -4 8 C-4.67546875 8.09539062 -5.3509375 8.19078125 -6.046875 8.2890625 C-6.93890625 8.39992188 -7.8309375 8.51078125 -8.75 8.625 C-9.63171875 8.74101562 -10.5134375 8.85703125 -11.421875 8.9765625 C-14.22859878 9.00207817 -15.63384866 8.44843844 -18 7 C-16.80503906 6.87044922 -16.80503906 6.87044922 -15.5859375 6.73828125 C-8.83682802 5.84332634 -4.72969448 4.99245528 0 0 Z " fill="#CFF6BF" transform="translate(112,292)"/>
<path d="M0 0 C5.40713546 0.43257084 8.852864 1.43153414 13 5 C14.375 8.25 14.375 8.25 15 11 C14.34 11.66 13.68 12.32 13 13 C12.5875 12.0925 12.175 11.185 11.75 10.25 C9.34397745 5.7816724 7.52654372 3.5871322 2.75 1.75 C1.8425 1.5025 0.935 1.255 0 1 C0 0.67 0 0.34 0 0 Z " fill="#C3E6F8" transform="translate(307,209)"/>
<path d="M0 0 C1.65 0.33 3.3 0.66 5 1 C5 2.32 5 3.64 5 5 C3.35 5 1.7 5 0 5 C0.33 5.99 0.66 6.98 1 8 C-1.4375 7.1875 -1.4375 7.1875 -4 6 C-4.33 5.01 -4.66 4.02 -5 3 C-2.525 3.495 -2.525 3.495 0 4 C0 2.68 0 1.36 0 0 Z " fill="#48CB1F" transform="translate(89,181)"/>
<path d="M0 0 C2 1.0625 2 1.0625 4 3 C4.25 6.6875 4.25 6.6875 4 10 C2.68 10 1.36 10 0 10 C-1.2380014 6.42355152 -0.74926071 3.66305234 0 0 Z " fill="#0970DD" transform="translate(315,214)"/>
<path d="M0 0 C0.99 0.33 1.98 0.66 3 1 C2.21625 1.721875 1.4325 2.44375 0.625 3.1875 C-3.39015029 7.8851121 -3.41105663 14.07540551 -4 20 C-4.33 20 -4.66 20 -5 20 C-5.22211116 18.06403108 -5.42722992 16.12610672 -5.625 14.1875 C-5.74101562 13.10855469 -5.85703125 12.02960938 -5.9765625 10.91796875 C-6 8 -6 8 -4 5 C-3.34 5 -2.68 5 -2 5 C-1.855625 4.360625 -1.71125 3.72125 -1.5625 3.0625 C-1 1 -1 1 0 0 Z " fill="#CBEEFD" transform="translate(289,103)"/>
<path d="M0 0 C0.66 0.33 1.32 0.66 2 1 C2 2.32 2 3.64 2 5 C1.01 5.66 0.02 6.32 -1 7 C-2.42824438 8.94789074 -2.42824438 8.94789074 -3.6875 11.125 C-4.12449219 11.84945312 -4.56148437 12.57390625 -5.01171875 13.3203125 C-5.33785156 13.87460938 -5.66398438 14.42890625 -6 15 C-6.66 14.01 -7.32 13.02 -8 12 C-7.34 10.68 -6.68 9.36 -6 8 C-5.01 8 -4.02 8 -3 8 C-3 6.68 -3 5.36 -3 4 C-2.34 3.34 -1.68 2.68 -1 2 C-0.67 1.34 -0.34 0.68 0 0 Z " fill="#E9F8F6" transform="translate(166,96)"/>
<path d="M0 0 C6.32110092 0.48623853 6.32110092 0.48623853 9.3125 2.75 C11.11884557 5.15846076 12.20128237 7.09557224 13 10 C12.54296875 12.15625 12.54296875 12.15625 12 14 C11.505 12.783125 11.01 11.56625 10.5 10.3125 C8.38048716 5.98132159 5.78897226 4.16012193 1.609375 1.91015625 C1.07828125 1.60980469 0.5471875 1.30945313 0 1 C0 0.67 0 0.34 0 0 Z " fill="#D7F9C4" transform="translate(230,263)"/>
<path d="M0 0 C1.28583984 -0.02126953 1.28583984 -0.02126953 2.59765625 -0.04296875 C4.9375 0.1875 4.9375 0.1875 7.9375 2.1875 C7.9375 2.8475 7.9375 3.5075 7.9375 4.1875 C7.41671875 4.02378906 6.8959375 3.86007812 6.359375 3.69140625 C3.2618125 3.04691341 0.34908906 3.09338411 -2.8125 3.125 C-4.56820312 3.13853516 -4.56820312 3.13853516 -6.359375 3.15234375 C-7.25140625 3.16394531 -8.1434375 3.17554688 -9.0625 3.1875 C-9.0625 2.5275 -9.0625 1.8675 -9.0625 1.1875 C-5.98998989 0.29640078 -3.19602607 0.02410276 0 0 Z " fill="#D9FDCD" transform="translate(99.0625,260.8125)"/>
<path d="M0 0 C1.4835001 0.42257276 2.96176424 0.86356322 4.4375 1.3125 C5.67306641 1.67794922 5.67306641 1.67794922 6.93359375 2.05078125 C7.61550781 2.36402344 8.29742187 2.67726563 9 3 C10.09658936 6.28976808 9.79953138 7.71303767 9 11 C8.443125 10.29875 7.88625 9.5975 7.3125 8.875 C4.90875268 5.88655739 2.46189568 2.94059762 0 0 Z " fill="#DBF9D1" transform="translate(107,265)"/>
<path d="M0 0 C0.55429687 0.16628906 1.10859375 0.33257812 1.6796875 0.50390625 C5.05902788 1.22642515 8.31999522 0.96735923 11.7578125 0.83984375 C14 1 14 1 16 3 C15.443125 2.97679688 14.88625 2.95359375 14.3125 2.9296875 C8.82390985 2.79988976 4.2706649 3.46671566 -1 5 C-0.67 3.35 -0.34 1.7 0 0 Z " fill="#D7F5FB" transform="translate(293,98)"/>
<path d="M0 0 C0.99 0.33 1.98 0.66 3 1 C3.33 2.65 3.66 4.3 4 6 C-0.625 8.125 -0.625 8.125 -4 7 C-3.34 7 -2.68 7 -2 7 C-2 5.68 -2 4.36 -2 3 C-1.34 2.67 -0.68 2.34 0 2 C0 1.34 0 0.68 0 0 Z " fill="#F5FDF4" transform="translate(236,296)"/>
<path d="M0 0 C-0.125 1.8125 -0.125 1.8125 -1 4 C-1.969375 4.45375 -2.93875 4.9075 -3.9375 5.375 C-7.28221042 6.74062444 -7.28221042 6.74062444 -8.375 10.1875 C-8.58125 11.115625 -8.7875 12.04375 -9 13 C-10 10 -10 10 -9.4375 7.625 C-7.52569186 4.1338721 -4.28804621 0 0 0 Z " fill="#50C72B" transform="translate(144,264)"/>
<path d="M0 0 C0.556875 0.268125 1.11375 0.53625 1.6875 0.8125 C0.32625 1.6478125 0.32625 1.6478125 -1.0625 2.5 C-5.40681613 5.59114801 -8.15133406 8.94987664 -10.3125 13.8125 C-10.6425 12.8225 -10.9725 11.8325 -11.3125 10.8125 C-4.97317416 -0.40323034 -4.97317416 -0.40323034 0 0 Z " fill="#3980CE" transform="translate(169.3125,210.1875)"/>
<path d="M0 0 C2 2 2 2 2.01171875 3.875 C1.90472656 4.57625 1.79773438 5.2775 1.6875 6 C1.58824219 6.70125 1.48898437 7.4025 1.38671875 8.125 C1 10 1 10 0 12 C-0.66 12 -1.32 12 -2 12 C-2.17835515 7.45194365 -1.99785435 4.1205746 0 0 Z " fill="#FAFBF4" transform="translate(324,116)"/>
<path d="M0 0 C1.00109515 3.31070838 1.10356134 6.30084769 1.0625 9.75 C1.05347656 10.73484375 1.04445312 11.7196875 1.03515625 12.734375 C1.02355469 13.48203125 1.01195312 14.2296875 1 15 C-1.21585882 12.78414118 -1.40438724 11.97806378 -2 9 C-2.20625 8.154375 -2.4125 7.30875 -2.625 6.4375 C-3 4 -3 4 -2 1 C-1.34 0.67 -0.68 0.34 0 0 Z " fill="#EAFDDF" transform="translate(131,275)"/>
<path d="M0 0 C5.28 0.33 10.56 0.66 16 1 C14 3 14 3 11.7578125 3.265625 C10.88898438 3.26046875 10.02015625 3.2553125 9.125 3.25 C8.26132812 3.25515625 7.39765625 3.2603125 6.5078125 3.265625 C3.89526423 2.98890649 2.2499912 2.3185995 0 1 C0 0.67 0 0.34 0 0 Z " fill="#2F79C6" transform="translate(294,134)"/>
<path d="M0 0 C-0.99 1.485 -0.99 1.485 -2 3 C-1.34 3.66 -0.68 4.32 0 5 C-1.32 5 -2.64 5 -4 5 C-4 5.66 -4 6.32 -4 7 C-4.66 6.67 -5.32 6.34 -6 6 C-5.67 5.34 -5.34 4.68 -5 4 C-5.99 3.67 -6.98 3.34 -8 3 C-8 2.34 -8 1.68 -8 1 C-2.25 -1.125 -2.25 -1.125 0 0 Z " fill="#F7FCF1" transform="translate(94,257)"/>
<path d="M0 0 C3.22539721 2.93217928 4.88644567 5.37390197 5.1953125 9.796875 C5.17210937 10.77140625 5.14890625 11.7459375 5.125 12.75 C5.10695313 13.73484375 5.08890625 14.7196875 5.0703125 15.734375 C5.03550781 16.85585937 5.03550781 16.85585937 5 18 C4.67 18 4.34 18 4 18 C3.87882812 17.28714844 3.75765625 16.57429688 3.6328125 15.83984375 C2.68936031 10.44765159 1.62637791 5.22764328 0 0 Z " fill="#327BC8" transform="translate(264,106)"/>
<path d="M0 0 C1.32 0.66 2.64 1.32 4 2 C4 3.32 4 4.64 4 6 C2.02 6.99 2.02 6.99 0 8 C-0.98120464 4.94736336 -0.98120464 3.05263664 0 0 Z " fill="#EAFAE8" transform="translate(242,176)"/>
<path d="M0 0 C1.32 0.33 2.64 0.66 4 1 C1.66666667 3.33333333 -0.66666667 5.66666667 -3 8 C-3.99 7.67 -4.98 7.34 -6 7 C-4.625 5.5 -4.625 5.5 -3 4 C-2.34 4 -1.68 4 -1 4 C-0.67 2.68 -0.34 1.36 0 0 Z " fill="#FDFBF0" transform="translate(287,100)"/>
<path d="M0 0 C0.33 0 0.66 0 1 0 C1 4.29 1 8.58 1 13 C-0.98 13.99 -0.98 13.99 -3 15 C-2.690625 14.01 -2.38125 13.02 -2.0625 12 C-0.91566793 8.02268878 -0.43287644 4.11232621 0 0 Z " fill="#D6FAC6" transform="translate(116,277)"/>
<path d="M0 0 C3.96 1.32 7.92 2.64 12 4 C12 4.33 12 4.66 12 5 C8.04 4.67 4.08 4.34 0 4 C0 2.68 0 1.36 0 0 Z " fill="#E6FCD7" transform="translate(86,296)"/>
<path d="M0 0 C0 3.7938847 -0.50637804 5.12855653 -3 8 C-5.99188481 8.73736168 -8.92568213 8.92910378 -12 9 C-12 8.67 -12 8.34 -12 8 C-9 7 -6 6 -3 5 C-1.8499169 3.03327085 -1.8499169 3.03327085 -1 1 C-0.67 0.67 -0.34 0.34 0 0 Z " fill="#C8F6B9" transform="translate(240,182)"/>
<path d="M0 0 C0.8971875 0.309375 0.8971875 0.309375 1.8125 0.625 C-3.04109495 4.64176824 -8.23722335 3.90636159 -14.1875 3.625 C-14.1875 3.295 -14.1875 2.965 -14.1875 2.625 C-13.57261719 2.57601562 -12.95773438 2.52703125 -12.32421875 2.4765625 C-11.51597656 2.40179688 -10.70773438 2.32703125 -9.875 2.25 C-9.07449219 2.18039063 -8.27398437 2.11078125 -7.44921875 2.0390625 C-4.37769438 1.47674543 -3.16065431 -0.54182645 0 0 Z " fill="#1E73CB" transform="translate(261.1875,132.375)"/>
<path d="M0 0 C3.77727089 1.81309003 7.37269822 3.9073259 11 6 C9.375 6.75 9.375 6.75 7 7 C1.288 3.864 1.288 3.864 0 0 Z " fill="#2472C2" transform="translate(162,129)"/>
<path d="M0 0 C0.33 0 0.66 0 1 0 C1 3.3 1 6.6 1 10 C0.34 10 -0.32 10 -1 10 C-2.25 3.375 -2.25 3.375 0 0 Z " fill="#EDFEE5" transform="translate(78,274)"/>
<path d="M0 0 C0.33 1.32 0.66 2.64 1 4 C-2.37817425 4.84454356 -4.67465243 5.10844919 -8 4 C-2.25 0 -2.25 0 0 0 Z " fill="#227DDD" transform="translate(171,101)"/>
<path d="M0 0 C6.52307692 1.47692308 6.52307692 1.47692308 8.9375 4.125 C9.288125 4.74375 9.63875 5.3625 10 6 C3.47692308 4.52307692 3.47692308 4.52307692 1.0625 1.875 C0.711875 1.25625 0.36125 0.6375 0 0 Z " fill="#5DCA39" transform="translate(136,293)"/>
<path d="M0 0 C0.78375 0.04125 1.5675 0.0825 2.375 0.125 C2.375 0.785 2.375 1.445 2.375 2.125 C1.385 2.125 0.395 2.125 -0.625 2.125 C-0.625 3.445 -0.625 4.765 -0.625 6.125 C-1.285 6.125 -1.945 6.125 -2.625 6.125 C-3.285 4.805 -3.945 3.485 -4.625 2.125 C-2.625 0.125 -2.625 0.125 0 0 Z " fill="#40CB08" transform="translate(108.625,289.875)"/>
<path d="M0 0 C4.95 1.98 4.95 1.98 10 4 C10 4.33 10 4.66 10 5 C6.7 5 3.4 5 0 5 C0 3.35 0 1.7 0 0 Z " fill="#E6FDD9" transform="translate(85,187)"/>
<path d="M0 0 C0.6875 1.625 0.6875 1.625 1 4 C0.0520411 6.02518491 -0.95191959 8.02477154 -2 10 C-2.69907414 12.73572585 -2.69907414 12.73572585 -3 15 C-3.33 15 -3.66 15 -4 15 C-3.63495936 9.33557626 -2.9445679 4.99296295 0 0 Z " fill="#64C342" transform="translate(83,161)"/>
<path d="M0 0 C1.15154588 2.82652171 1.07817396 3.81325108 -0.125 6.6875 C-2 9 -2 9 -4.6875 9.8125 C-5.450625 9.874375 -6.21375 9.93625 -7 10 C-6.57847656 9.44570312 -6.15695312 8.89140625 -5.72265625 8.3203125 C-5.17480469 7.59585938 -4.62695312 6.87140625 -4.0625 6.125 C-3.51722656 5.40570313 -2.97195313 4.68640625 -2.41015625 3.9453125 C-0.96035376 2.05642921 -0.96035376 2.05642921 0 0 Z " fill="#CDF0FD" transform="translate(320,233)"/>
<path d="M0 0 C2.5625 1.375 2.5625 1.375 5 3 C5.66 3.33 6.32 3.66 7 4 C6.67 4.99 6.34 5.98 6 7 C2.84866512 5.16172132 -0.11964908 3.24027294 -3 1 C-2.01 0.67 -1.02 0.34 0 0 Z " fill="#CAECFA" transform="translate(312,100)"/>
<path d="M0 0 C0.66 0 1.32 0 2 0 C1.5206753 4.31392226 0.2542015 6.16569547 -3 9 C-3.33 8.34 -3.66 7.68 -4 7 C-3.34 7 -2.68 7 -2 7 C-2 5.68 -2 4.36 -2 3 C-1.34 2.67 -0.68 2.34 0 2 C0 1.34 0 0.68 0 0 Z " fill="#4BC624" transform="translate(238,179)"/>
<path d="M0 0 C2.31 0.33 4.62 0.66 7 1 C6.67 1.66 6.34 2.32 6 3 C2.9375 3.625 2.9375 3.625 0 4 C0 2.68 0 1.36 0 0 Z " fill="#EBF6FA" transform="translate(161,242)"/>
<path d="M0 0 C0.86625 0.3403125 0.86625 0.3403125 1.75 0.6875 C0.76 2.1725 0.76 2.1725 -0.25 3.6875 C-3.22 3.1925 -3.22 3.1925 -6.25 2.6875 C-2.80384615 -0.38942308 -2.80384615 -0.38942308 0 0 Z " fill="#3DCC09" transform="translate(95.25,156.3125)"/>
<path d="M0 0 C0.66 0 1.32 0 2 0 C2.33 1.98 2.66 3.96 3 6 C0.525 5.01 0.525 5.01 -2 4 C-1.34 2.68 -0.68 1.36 0 0 Z " fill="#0970DA" transform="translate(262,106)"/>
<path d="M0 0 C2.99324263 1.0975223 3.84610901 1.67682892 5.25 4.625 C5.4975 5.40875 5.745 6.1925 6 7 C3.00675737 5.9024777 2.15389099 5.32317108 0.75 2.375 C0.5025 1.59125 0.255 0.8075 0 0 Z " fill="#367DC7" transform="translate(160,235)"/>
<path d="M0 0 C2 1.3125 2 1.3125 4 3 C4 3.99 4 4.98 4 6 C2.68 5.67 1.36 5.34 0 5 C0 3.35 0 1.7 0 0 Z " fill="#2977CC" transform="translate(315,214)"/>
<path d="M0 0 C0.66 0 1.32 0 2 0 C2.66 1.98 3.32 3.96 4 6 C3.34 6.66 2.68 7.32 2 8 C0.74335022 5.09399739 0 3.20395416 0 0 Z " fill="#DBF4FC" transform="translate(318,214)"/>
<path d="M0 0 C0.33 0.66 0.66 1.32 1 2 C0.0625 4.625 0.0625 4.625 -1 7 C-2.65 7 -4.3 7 -6 7 C-4.02 4.69 -2.04 2.38 0 0 Z " fill="#CAE8F7" transform="translate(318,128)"/>
<path d="M0 0 C1.125 3.75 1.125 3.75 0 6 C-1.65 5.67 -3.3 5.34 -5 5 C-3.35 3.35 -1.7 1.7 0 0 Z " fill="#E1F2FC" transform="translate(265,130)"/>
<path d="M0 0 C0.99 0 1.98 0 3 0 C3 0.66 3 1.32 3 2 C2.34 2 1.68 2 1 2 C0.34 3.65 -0.32 5.3 -1 7 C-1.66 6.67 -2.32 6.34 -3 6 C-2.01 4.02 -1.02 2.04 0 0 Z " fill="#2779C9" transform="translate(288,107)"/>
</svg>
